<?xml version="1.0" encoding="UTF-8" standalone="no"?>
<!DOCTYPE svg PUBLIC "-//W3C//DTD SVG 1.1//EN" "http://www.w3.org/Graphics/SVG/1.1/DTD/svg11.dtd">
<svg version="1.1" xmlns="http://www.w3.org/2000/svg" xmlns:xlink="http://www.w3.org/1999/xlink" preserveAspectRatio="xMidYMid meet" viewBox="0 0 763 785" width="763" height="785"><defs><path d="M225.09 721.82C226.07 722.2 226.69 722.44 226.93 722.53C324.89 760.73 433.63 760.73 531.59 722.53C531.84 722.44 532.45 722.2 533.43 721.82C533.35 721.78 533.3 721.76 533.28 721.76C508.76 711.43 486.72 695.99 468.63 676.47C468.46 676.28 468.04 675.82 467.36 675.09L290.57 676.28C290.26 676.62 290.07 676.83 290 676.91C273.65 694.88 253.72 709.22 231.49 719C230.63 719.38 228.5 720.32 225.09 721.82Z" id="a1d5z5WkLi"></path><path d="M454.89 679.61C492.42 670.12 581.28 624.56 600.43 591.93C604.03 585.8 606.65 533.17 608.29 434.04L150.23 442.1C153.36 534.28 155.33 581 156.15 582.26C166.71 598.47 184.96 617.59 198.89 630.45C215.83 646.1 234.28 653.72 256.17 663.18C282.93 674.74 325.12 687.49 353.81 689.83C355.02 689.93 360.03 690.06 368.82 690.2C396.31 690.66 423.73 687.48 450.38 680.75C423.61 687.51 425.12 687.13 454.89 679.61Z" id="bNfBH2Gor"></path><path d="M141.56 561.36L133.02 364L641.12 369.04L605.35 568.81C574.85 576.73 555.78 581.68 548.16 583.66C530.48 588.25 512.01 588.94 494.04 585.69C478.82 582.95 487.32 584.48 478.81 582.94C440.65 576.05 408.24 551 391.95 515.81C390.23 512.1 385.92 502.8 379.04 487.93C374.53 499.45 371.72 506.65 370.59 509.53C360.27 535.92 340.76 557.68 315.65 570.8C307.01 575.31 323.44 566.73 315.65 570.8C287.63 585.44 255.61 590.61 224.4 585.51C212.71 583.6 207.86 582.81 191.7 580.17C174.7 577.39 158.38 571.42 143.59 562.57C143.32 562.41 142.64 562.01 141.56 561.36Z" id="eb84j4hkL"></path><path d="M143.35 42.28C139.48 42.13 135.96 44.48 134.61 48.1C133.96 49.85 135.1 46.79 134.66 47.98C132.48 53.85 131.24 60.03 130.99 66.29C130.81 70.91 130.95 67.37 130.85 70C130.33 82.88 131.34 95.76 133.85 108.4C134.45 111.46 135.97 119.1 138.4 131.32C135.58 138.15 133.82 142.42 133.12 144.13C125.65 162.23 121.85 181.63 121.93 201.21C121.99 215.38 122.05 229.19 122.11 243.61C122.18 262.39 125.94 280.98 133.18 298.32C134.28 300.97 137.04 307.59 141.46 318.19C138.34 320.82 136.39 322.46 135.61 323.12C112.3 342.74 96.8 370.05 91.89 400.12C90 411.73 93.41 390.8 91.89 400.12C85.69 438.13 89.79 477.12 103.77 513.01C113.78 538.71 107.1 521.56 113.27 537.4C138.64 602.52 194.59 650.86 262.69 666.5C262.69 666.5 262.69 666.5 262.69 666.5C239.53 651.57 225.05 642.23 219.25 638.5C211.72 633.65 204.72 628.03 198.34 621.73C186.35 609.89 199.6 622.98 197.52 620.92C159.9 583.77 139.87 532.35 142.45 479.54C143.31 462.06 143.44 459.35 144.7 433.56C145.97 407.72 160.13 384.24 182.39 371.06C182.92 370.75 184.25 369.97 186.37 368.71C189.29 370.62 191.11 371.81 191.84 372.29C300.72 443.48 440.39 447.38 553.08 382.39C555.6 380.93 561.91 377.29 572 371.47C572.04 371.5 572.06 371.51 572.07 371.52C596.02 387.9 611.14 414.37 613.06 443.32C614.17 459.94 614.69 467.77 615.86 485.34C617.64 512.24 612.27 539.13 600.29 563.27C594.63 574.67 601.25 561.32 596.92 570.05C580.67 602.79 555.15 630.04 523.55 648.41C519.4 650.83 509.03 656.86 492.44 666.5C494.8 666.34 496.27 666.24 496.86 666.19C518.13 664.71 538.76 658.28 557.11 647.41C564.04 643.31 551.53 650.72 557.11 647.41C579.95 633.89 599.68 615.7 615.01 594.03C625.53 579.17 620.73 585.95 627.98 575.72C653.88 539.13 668.94 495.99 671.43 451.24C672.51 431.98 671.9 442.93 672.97 423.73C675.33 381.29 654.52 340.89 618.59 318.19C618.59 318.19 618.59 318.19 618.59 318.19C622.26 309.5 624.56 304.08 625.48 301.9C634.85 279.77 638.82 255.71 637.07 231.74C636.1 218.44 635.26 206.97 634.14 191.66C632.86 174.23 628.22 157.21 620.47 141.54C619.2 138.98 616.02 132.57 610.95 122.31C614.56 109.88 617.11 97.9 618.59 86.38C619.54 78.93 619.99 71.78 619.93 64.93C619.86 57.15 618.6 49.42 616.19 42.02C616.19 42.02 616.19 42.02 616.19 42.02C596.67 42.55 584.47 42.87 579.59 43C563.3 43.44 547.07 45.31 531.11 48.6C522.09 50.45 502.6 54.46 489.47 57.16C487.19 57.63 484.85 57.74 482.53 57.47C476.52 56.79 461.49 55.07 437.45 52.33L379.16 50.73C353.27 51.12 337.08 51.36 330.61 51.46C330.61 51.46 313.16 52.54 313.16 52.54C302.77 53.68 276.59 56.56 265.27 57.8C262.58 58.09 259.85 57.96 257.2 57.39C245.04 54.79 230.22 51.63 222.48 49.97C205.13 46.27 187.5 44.05 169.77 43.34C163.19 43.08 153.96 42.71 143.35 42.28Z" id="b1vLbWpnGS"></path><path d="M607.91 455.56L607.77 462.39L607.63 469.04L607.49 475.51L607.34 481.81L607.19 487.94L607.04 493.89L606.88 499.67L606.72 505.27L606.55 510.7L606.38 515.96L606.21 521.04L606.03 525.95L605.85 530.68L605.67 535.23L605.48 539.62L605.29 543.83L605.1 547.86L604.9 551.72L604.7 555.41L604.49 558.92L604.28 562.26L604.07 565.42L603.85 568.41L603.63 571.22L603.41 573.86L603.18 576.32L602.95 578.62L602.71 580.73L602.48 582.67L602.23 584.44L601.99 586.04L601.74 587.45L601.48 588.7L601.23 589.77L600.97 590.67L600.7 591.39L600.43 591.93L598.87 594.4L597.05 596.92L595 599.47L592.72 602.06L590.22 604.68L587.52 607.32L584.62 609.99L581.54 612.67L578.3 615.36L574.89 618.06L571.33 620.76L567.64 623.47L563.82 626.16L559.89 628.84L555.86 631.51L551.74 634.16L547.53 636.78L543.26 639.37L538.93 641.93L534.55 644.45L530.14 646.92L525.71 649.35L521.26 651.73L516.82 654.04L512.38 656.3L507.97 658.49L503.59 660.61L499.26 662.65L494.98 664.62L490.77 666.49L486.64 668.28L482.6 669.98L478.66 671.58L474.84 673.07L471.13 674.45L467.57 675.73L464.15 676.88L460.89 677.92L457.8 678.83L454.89 679.61L450.38 680.75L448.38 681.24L446.38 681.73L444.37 682.2L442.36 682.66L440.35 683.1L438.34 683.54L436.32 683.95L434.3 684.36L432.28 684.75L430.26 685.13L428.23 685.49L426.21 685.84L424.18 686.18L422.14 686.51L420.11 686.82L418.07 687.11L416.04 687.4L414 687.67L411.96 687.93L409.91 688.17L407.87 688.4L405.82 688.62L403.78 688.82L401.73 689.01L399.68 689.19L397.63 689.35L395.58 689.5L393.52 689.63L391.47 689.76L389.41 689.86L387.36 689.96L385.3 690.04L383.24 690.11L381.51 690.15L381.51 438.03L608.29 434.04L608.17 441.39L608.04 448.56L608.04 448.56L607.91 455.56Z" id="d15c7PV0s"></path><path d="M605.35 568.81L548.16 583.66L546.83 583.99L545.5 584.32L544.17 584.62L542.83 584.92L541.49 585.2L540.15 585.46L538.81 585.71L537.46 585.94L536.12 586.16L534.77 586.37L533.42 586.56L532.07 586.74L530.71 586.9L529.36 587.04L528 587.18L526.64 587.29L525.29 587.4L523.93 587.48L522.57 587.56L521.21 587.62L519.85 587.66L518.48 587.69L517.12 587.7L515.76 587.7L514.4 587.69L513.03 587.66L511.67 587.61L510.31 587.56L508.95 587.48L507.59 587.39L506.23 587.29L504.87 587.17L503.51 587.04L502.15 586.89L500.8 586.73L499.44 586.55L498.09 586.36L496.74 586.15L495.38 585.93L494.04 585.7L478.81 582.95L475.96 582.4L473.13 581.78L470.33 581.09L467.55 580.34L464.79 579.53L462.06 578.65L459.36 577.7L456.69 576.7L454.05 575.63L451.43 574.5L448.85 573.31L446.3 572.06L443.79 570.75L441.3 569.38L438.86 567.95L436.44 566.47L434.07 564.93L431.73 563.34L429.44 561.69L427.18 559.99L424.97 558.24L422.79 556.43L420.66 554.57L418.57 552.66L416.53 550.7L414.54 548.69L412.59 546.64L410.68 544.53L408.83 542.38L407.03 540.18L405.28 537.94L403.58 535.65L401.93 533.31L400.33 530.94L398.79 528.52L397.31 526.06L395.88 523.56L394.51 521.02L393.2 518.44L391.95 515.82L381 492.16L381 366.46L641.12 369.04L605.35 568.81Z" id="a1bf1ppgIJ"></path><path d="M616.45 43.12L616.62 43.67L616.79 44.23L616.95 44.79L617.11 45.36L617.26 45.92L617.41 46.48L617.55 47.05L617.69 47.61L617.83 48.18L617.96 48.74L618.09 49.31L618.21 49.88L618.33 50.45L618.44 51.02L618.55 51.59L618.65 52.17L618.75 52.74L618.85 53.31L618.94 53.89L619.03 54.46L619.11 55.04L619.19 55.62L619.26 56.19L619.33 56.77L619.4 57.35L619.46 57.93L619.52 58.51L619.57 59.09L619.62 59.67L619.66 60.25L619.7 60.83L619.73 61.41L619.76 61.99L619.79 62.58L619.81 63.16L619.82 63.74L619.84 64.33L619.84 64.91L619.85 65.42L619.85 65.94L619.85 66.46L619.85 66.97L619.84 67.49L619.84 68.01L619.83 68.53L619.82 69.06L619.81 69.58L619.79 70.11L619.78 70.63L619.76 71.16L619.74 71.69L619.72 72.21L619.7 72.74L619.67 73.28L619.65 73.81L619.62 74.34L619.59 74.88L619.55 75.41L619.52 75.95L619.48 76.49L619.44 77.03L619.4 77.57L619.36 78.11L619.32 78.65L619.27 79.19L619.22 79.74L619.17 80.28L619.12 80.83L619.07 81.38L619.01 81.93L618.96 82.48L618.9 83.03L618.84 83.58L618.77 84.14L618.71 84.69L618.64 85.25L618.57 85.8L618.5 86.36L618.39 87.23L618.27 88.09L618.15 88.96L618.03 89.83L617.9 90.7L617.76 91.58L617.63 92.45L617.49 93.33L617.34 94.21L617.19 95.09L617.04 95.97L616.88 96.85L616.72 97.74L616.56 98.63L616.39 99.52L616.21 100.41L616.04 101.3L615.86 102.19L615.67 103.09L615.48 103.99L615.29 104.88L615.09 105.79L614.89 106.69L614.69 107.59L614.48 108.5L614.26 109.41L614.05 110.32L613.83 111.23L613.6 112.14L613.37 113.05L613.14 113.97L612.9 114.89L612.66 115.81L612.42 116.73L612.17 117.65L611.91 118.58L611.66 119.5L611.4 120.43L611.13 121.36L610.86 122.29L620.38 141.52L620.95 142.7L621.52 143.88L622.07 145.07L622.61 146.26L623.14 147.46L623.66 148.66L624.16 149.87L624.66 151.08L625.14 152.29L625.61 153.51L626.06 154.74L626.51 155.96L626.94 157.2L627.37 158.43L627.78 159.67L628.17 160.91L628.56 162.16L628.93 163.41L629.29 164.66L629.64 165.92L629.98 167.18L630.31 168.45L630.62 169.71L630.92 170.98L631.21 172.26L631.48 173.53L631.75 174.81L632 176.09L632.24 177.37L632.47 178.66L632.68 179.95L632.88 181.24L633.07 182.53L633.25 183.83L633.41 185.13L633.57 186.43L633.71 187.73L633.83 189.03L633.95 190.34L634.05 191.64L636.98 231.72L637.1 233.52L637.2 235.32L637.28 237.12L637.34 238.91L637.37 240.71L637.39 242.51L637.38 244.3L637.35 246.1L637.3 247.89L637.23 249.69L637.14 251.48L637.02 253.27L636.89 255.05L636.73 256.84L636.56 258.62L636.36 260.4L636.14 262.18L635.9 263.95L635.64 265.72L635.36 267.49L635.06 269.26L634.73 271.02L634.39 272.78L634.03 274.53L633.64 276.28L633.23 278.02L632.81 279.76L632.36 281.5L631.89 283.23L631.4 284.96L630.89 286.68L630.37 288.39L629.82 290.1L629.24 291.8L628.65 293.5L628.04 295.19L627.41 296.87L626.76 298.55L626.09 300.22L625.39 301.89L618.5 318.17L621.17 319.91L623.78 321.71L626.33 323.57L628.82 325.5L631.25 327.48L633.62 329.53L635.93 331.63L638.18 333.79L640.37 336.01L642.49 338.27L644.55 340.59L646.54 342.96L648.47 345.38L650.33 347.84L652.12 350.35L653.85 352.91L655.5 355.51L657.09 358.14L658.61 360.82L660.05 363.54L661.43 366.3L662.73 369.09L663.96 371.91L665.11 374.77L666.19 377.65L667.19 380.57L668.12 383.52L668.97 386.49L669.74 389.49L670.44 392.51L671.05 395.55L671.58 398.62L672.04 401.7L672.41 404.8L672.7 407.92L672.9 411.06L673.03 414.2L673.06 417.36L673.01 420.53L672.88 423.71L671.35 451.22L671.14 454.57L670.88 457.92L670.57 461.26L670.22 464.59L669.83 467.92L669.38 471.23L668.89 474.54L668.36 477.84L667.77 481.13L667.15 484.41L666.47 487.67L665.76 490.93L664.99 494.18L664.18 497.41L663.33 500.63L662.43 503.84L661.49 507.03L660.5 510.21L659.47 513.37L658.4 516.52L657.28 519.66L656.12 522.78L654.91 525.88L653.66 528.97L652.37 532.04L651.03 535.09L649.65 538.12L648.23 541.14L646.77 544.13L645.26 547.11L643.71 550.07L642.12 553L640.49 555.92L638.81 558.81L637.09 561.68L635.34 564.53L633.54 567.36L631.7 570.16L629.82 572.94L627.89 575.7L614.93 594.02L613.77 595.63L612.6 597.24L611.4 598.83L610.2 600.41L608.97 601.98L607.73 603.53L606.48 605.06L605.21 606.59L603.92 608.1L602.62 609.59L601.31 611.08L599.97 612.54L598.63 614L597.27 615.44L595.89 616.86L594.5 618.27L593.09 619.66L591.67 621.04L590.24 622.41L588.79 623.76L587.33 625.09L585.85 626.41L584.36 627.71L582.86 629L581.34 630.27L579.81 631.53L578.26 632.77L576.7 634L575.13 635.2L573.55 636.4L571.95 637.57L570.34 638.73L568.72 639.87L567.09 641L565.44 642.11L563.78 643.2L562.11 644.28L560.43 645.33L558.73 646.37L557.03 647.4L555.64 648.2L554.26 648.99L552.86 649.77L551.45 650.52L550.04 651.26L548.62 651.99L547.19 652.69L545.76 653.38L544.31 654.05L542.86 654.71L541.4 655.35L539.94 655.97L538.47 656.57L536.99 657.16L535.51 657.72L534.02 658.28L532.52 658.81L531.02 659.33L529.51 659.83L528 660.31L526.48 660.77L524.95 661.22L523.42 661.65L521.89 662.06L520.35 662.45L518.8 662.83L517.26 663.18L515.7 663.52L514.14 663.84L512.58 664.15L511.02 664.43L509.45 664.7L507.87 664.95L506.3 665.18L504.72 665.39L503.14 665.59L501.55 665.76L499.96 665.92L498.37 666.06L496.77 666.18L492.36 666.49L523.47 648.4L525.83 647L528.16 645.57L530.47 644.11L532.76 642.62L535.03 641.1L537.27 639.54L539.48 637.95L541.67 636.33L543.84 634.69L545.98 633.01L548.09 631.3L550.18 629.56L552.24 627.79L554.27 625.99L556.28 624.16L558.26 622.3L560.22 620.42L562.14 618.51L564.04 616.57L565.91 614.6L567.75 612.61L569.56 610.59L571.34 608.54L573.09 606.47L574.81 604.37L576.5 602.25L578.16 600.1L579.79 597.92L581.39 595.73L582.96 593.51L584.49 591.26L586 588.99L587.47 586.7L588.91 584.38L590.31 582.05L591.68 579.69L593.02 577.3L594.33 574.9L595.6 572.48L596.84 570.03L600.2 563.25L601.09 561.44L601.95 559.61L602.78 557.78L603.6 555.93L604.38 554.08L605.15 552.21L605.88 550.34L606.59 548.46L607.28 546.57L607.94 544.67L608.58 542.77L609.19 540.86L609.77 538.94L610.33 537.01L610.87 535.08L611.37 533.14L611.86 531.19L612.31 529.24L612.74 527.29L613.15 525.32L613.53 523.35L613.88 521.38L614.21 519.4L614.51 517.42L614.79 515.44L615.04 513.45L615.26 511.45L615.46 509.46L615.63 507.46L615.78 505.45L615.9 503.45L615.99 501.44L616.05 499.43L616.09 497.42L616.11 495.41L616.09 493.39L616.05 491.38L615.98 489.36L615.89 487.34L615.77 485.33L612.98 443.31L612.81 441.14L612.59 438.98L612.32 436.84L612.01 434.7L611.64 432.58L611.23 430.47L610.78 428.37L610.27 426.29L609.72 424.23L609.13 422.18L608.49 420.14L607.8 418.12L607.07 416.12L606.29 414.14L605.47 412.18L604.61 410.24L603.71 408.32L602.76 406.42L601.77 404.54L600.74 402.69L599.67 400.86L598.55 399.05L597.4 397.27L596.21 395.51L594.97 393.78L593.7 392.08L592.39 390.41L591.04 388.76L589.65 387.15L588.22 385.56L586.76 384L585.26 382.48L583.72 380.99L582.15 379.53L580.54 378.1L578.9 376.71L577.22 375.35L575.51 374.03L573.76 372.75L571.98 371.5L571.91 371.46L552.99 382.37L544.49 387.12L535.89 391.6L527.21 395.83L518.43 399.8L509.58 403.52L500.66 406.97L491.66 410.17L482.6 413.11L473.49 415.8L464.32 418.22L455.11 420.39L445.85 422.31L436.56 423.96L427.23 425.36L417.88 426.51L408.51 427.4L399.13 428.03L389.74 428.41L381 428.52L381 50.77L437.36 52.32L482.45 57.46L482.62 57.47L482.79 57.49L482.97 57.51L483.14 57.52L483.31 57.54L483.49 57.55L483.66 57.56L483.84 57.57L484.01 57.58L484.19 57.58L484.36 57.59L484.53 57.59L484.71 57.6L484.88 57.6L485.06 57.6L485.23 57.6L485.41 57.59L485.58 57.59L485.75 57.58L485.93 57.58L486.1 57.57L486.28 57.56L486.45 57.55L486.62 57.53L486.8 57.52L486.97 57.5L487.15 57.49L487.32 57.47L487.49 57.45L487.67 57.43L487.84 57.41L488.01 57.38L488.18 57.36L488.36 57.33L488.53 57.3L488.7 57.28L488.87 57.24L489.05 57.21L489.22 57.18L489.39 57.15L531.02 48.58L532.22 48.34L533.42 48.1L534.62 47.86L535.82 47.64L537.02 47.41L538.22 47.2L539.43 46.98L540.63 46.78L541.83 46.58L543.04 46.38L544.25 46.19L545.45 46.01L546.66 45.83L547.87 45.65L549.08 45.48L550.29 45.32L551.5 45.16L552.71 45.01L553.93 44.86L555.14 44.71L556.35 44.58L557.57 44.45L558.78 44.32L560 44.2L561.21 44.08L562.43 43.97L563.65 43.87L564.86 43.77L566.08 43.67L567.3 43.58L568.52 43.5L569.74 43.42L570.96 43.35L572.18 43.28L573.4 43.22L574.62 43.16L575.84 43.11L577.06 43.06L578.28 43.02L579.5 42.99L616.1 42L616.28 42.56L616.45 43.12Z" id="a2pewLfjur"></path><path d="M410.53 300.07L378.31 256.64L347.55 302.92C349.03 306.68 349.95 309.04 350.32 309.98C357.29 327.75 366.43 344.6 377.53 360.14C377.64 360.28 377.9 360.65 378.31 361.23C379.91 358.9 380.9 357.44 381.3 356.86C392.42 340.57 401.63 323.06 408.75 304.66C408.98 304.05 409.58 302.52 410.53 300.07Z" id="d1a68PH03X"></path><path d="M408.7 304.66L408.16 306.04L407.61 307.42L407.06 308.79L406.5 310.16L405.93 311.52L405.35 312.88L404.77 314.24L404.18 315.59L403.58 316.94L402.97 318.29L402.36 319.63L401.73 320.97L401.1 322.31L400.46 323.64L399.82 324.97L399.17 326.29L398.5 327.61L397.84 328.93L397.16 330.24L396.48 331.55L395.79 332.86L395.09 334.16L394.38 335.45L393.67 336.75L392.95 338.04L392.22 339.32L391.48 340.6L390.74 341.88L389.99 343.15L389.23 344.42L388.46 345.68L387.69 346.94L386.91 348.2L386.13 349.45L385.33 350.69L384.53 351.93L383.72 353.17L382.9 354.4L382.08 355.63L381.25 356.86L381 357.23L381 260.32L410.48 300.07L408.7 304.66Z" id="i16W0HdE9q"></path><path d="M283.51 164.23L286.29 164.51L289.03 164.9L291.74 165.4L294.41 166L297.04 166.71L299.63 167.51L302.17 168.42L304.66 169.42L307.11 170.51L309.51 171.69L311.85 172.96L314.13 174.32L316.36 175.77L318.53 177.29L320.64 178.9L322.68 180.59L324.65 182.35L326.56 184.18L328.39 186.09L330.15 188.06L331.83 190.1L333.44 192.21L334.97 194.37L336.41 196.6L337.77 198.89L339.04 201.23L340.23 203.63L341.32 206.07L342.32 208.57L343.22 211.11L344.03 213.7L344.73 216.33L345.34 219L345.83 221.7L346.23 224.45L346.51 227.22L346.68 230.03L346.74 232.87L346.68 235.7L346.51 238.51L346.23 241.29L345.83 244.03L345.34 246.74L344.73 249.41L344.03 252.04L343.22 254.63L342.32 257.17L341.32 259.66L340.23 262.11L339.04 264.5L337.77 266.85L336.41 269.13L334.97 271.36L333.44 273.53L331.83 275.63L330.15 277.68L328.39 279.65L326.56 281.55L324.65 283.39L322.68 285.15L320.64 286.83L318.53 288.44L316.36 289.97L314.13 291.41L311.85 292.77L309.51 294.04L307.11 295.23L304.66 296.32L302.17 297.32L299.63 298.22L297.04 299.03L294.41 299.73L291.74 300.34L289.03 300.83L286.29 301.22L283.51 301.51L280.7 301.68L277.87 301.74L275.03 301.68L272.22 301.51L269.45 301.22L266.7 300.83L264 300.34L261.33 299.73L258.7 299.03L256.11 298.22L253.57 297.32L251.07 296.32L248.63 295.23L246.23 294.04L243.89 292.77L241.6 291.41L239.37 289.97L237.21 288.44L235.1 286.83L233.06 285.15L231.09 283.39L229.18 281.55L227.35 279.65L225.59 277.68L223.9 275.63L222.29 273.53L220.77 271.36L219.32 269.13L217.96 266.85L216.69 264.5L215.51 262.11L214.42 259.66L213.42 257.17L212.51 254.63L211.71 252.04L211 249.41L210.4 246.74L209.9 244.03L209.51 241.29L209.23 238.51L209.06 235.7L209 232.87L209.06 230.03L209.23 227.22L209.51 224.45L209.9 221.7L210.4 219L211 216.33L211.71 213.7L212.51 211.11L213.42 208.57L214.42 206.07L215.51 203.63L216.69 201.23L217.96 198.89L219.32 196.6L220.77 194.37L222.29 192.21L223.9 190.1L225.59 188.06L227.35 186.09L229.18 184.18L231.09 182.35L233.06 180.59L235.1 178.9L237.21 177.29L239.37 175.77L241.6 174.32L243.89 172.96L246.23 171.69L248.63 170.51L251.07 169.42L253.57 168.42L256.11 167.51L258.7 166.71L261.33 166L264 165.4L266.7 164.9L269.45 164.51L272.22 164.23L275.03 164.06L277.87 164L280.7 164.06L283.51 164.23ZM301.37 212.11L300.08 212.24L298.81 212.42L297.55 212.65L296.31 212.93L295.09 213.26L293.89 213.64L292.71 214.06L291.55 214.52L290.41 215.03L289.3 215.58L288.21 216.17L287.15 216.8L286.11 217.47L285.1 218.18L284.13 218.93L283.18 219.71L282.26 220.53L281.37 221.38L280.52 222.27L279.7 223.18L278.92 224.13L278.17 225.11L277.47 226.12L276.79 227.15L276.16 228.22L275.57 229.3L275.02 230.42L274.51 231.55L274.05 232.71L273.63 233.89L273.26 235.1L272.93 236.32L272.65 237.56L272.42 238.82L272.23 240.09L272.1 241.38L272.02 242.69L272 244L272.02 245.32L272.1 246.63L272.23 247.92L272.42 249.19L272.65 250.45L272.93 251.69L273.26 252.91L273.63 254.11L274.05 255.3L274.51 256.45L275.02 257.59L275.57 258.7L276.16 259.79L276.79 260.85L277.47 261.89L278.17 262.9L278.92 263.88L279.7 264.82L280.52 265.74L281.37 266.63L282.26 267.48L283.18 268.3L284.13 269.08L285.1 269.83L286.11 270.54L287.15 271.21L288.21 271.84L289.3 272.43L290.41 272.98L291.55 273.49L292.71 273.95L293.89 274.37L295.09 274.75L296.31 275.07L297.55 275.35L298.81 275.58L300.08 275.77L301.37 275.9L302.68 275.98L304 276L305.32 275.98L306.62 275.9L307.91 275.77L309.19 275.58L310.44 275.35L311.68 275.07L312.91 274.75L314.11 274.37L315.29 273.95L316.45 273.49L317.59 272.98L318.7 272.43L319.79 271.84L320.85 271.21L321.88 270.54L322.89 269.83L323.87 269.08L324.82 268.3L325.74 267.48L326.62 266.63L327.47 265.74L328.29 264.82L329.07 263.88L329.82 262.9L330.53 261.89L331.2 260.85L331.83 259.79L332.42 258.7L332.97 257.59L333.48 256.45L333.95 255.3L334.36 254.11L334.74 252.91L335.07 251.69L335.35 250.45L335.58 249.19L335.76 247.92L335.89 246.63L335.97 245.32L336 244L335.97 242.69L335.89 241.38L335.76 240.09L335.58 238.82L335.35 237.56L335.07 236.32L334.74 235.1L334.36 233.89L333.95 232.71L333.48 231.55L332.97 230.42L332.42 229.3L331.83 228.22L331.2 227.15L330.53 226.12L329.82 225.11L329.07 224.13L328.29 223.18L327.47 222.27L326.62 221.38L325.74 220.53L324.82 219.71L323.87 218.93L322.89 218.18L321.88 217.47L320.85 216.8L319.79 216.17L318.7 215.58L317.59 215.03L316.45 214.52L315.29 214.06L314.11 213.64L312.91 213.26L311.68 212.93L310.44 212.65L309.19 212.42L307.91 212.24L306.62 212.11L305.32 212.03L304 212L302.68 212.03L301.37 212.11Z" id="c51OAaXEQ"></path><path d="M487.27 164.93L490.03 165.21L492.76 165.6L495.45 166.09L498.11 166.69L500.72 167.39L503.3 168.19L505.83 169.09L508.31 170.09L510.74 171.17L513.12 172.35L515.45 173.62L517.73 174.97L519.94 176.4L522.1 177.92L524.19 179.52L526.22 181.2L528.19 182.95L530.08 184.77L531.91 186.67L533.66 188.63L535.33 190.66L536.93 192.76L538.45 194.91L539.89 197.13L541.24 199.4L542.51 201.73L543.68 204.11L544.77 206.55L545.76 209.03L546.66 211.56L547.46 214.13L548.16 216.75L548.76 219.4L549.26 222.09L549.65 224.82L549.93 227.58L550.1 230.38L550.16 233.2L550.1 236.02L549.93 238.81L549.65 241.58L549.26 244.3L548.76 247L548.16 249.65L547.46 252.27L546.66 254.84L545.76 257.37L544.77 259.85L543.68 262.29L542.51 264.67L541.24 267L539.89 269.27L538.45 271.49L536.93 273.64L535.33 275.74L533.66 277.77L531.91 279.73L530.08 281.63L528.19 283.45L526.22 285.2L524.19 286.88L522.1 288.48L519.94 289.99L517.73 291.43L515.45 292.78L513.12 294.05L510.74 295.23L508.31 296.31L505.83 297.31L503.3 298.2L500.72 299.01L498.11 299.71L495.45 300.31L492.76 300.8L490.03 301.19L487.27 301.47L484.48 301.64L481.66 301.7L478.83 301.64L476.04 301.47L473.28 301.19L470.55 300.8L467.86 300.31L465.2 299.71L462.59 299.01L460.01 298.2L457.49 297.31L455 296.31L452.57 295.23L450.19 294.05L447.86 292.78L445.58 291.43L443.37 289.99L441.21 288.48L439.12 286.88L437.09 285.2L435.12 283.45L433.23 281.63L431.4 279.73L429.65 277.77L427.98 275.74L426.38 273.64L424.86 271.49L423.42 269.27L422.07 267L420.81 264.67L419.63 262.29L418.54 259.85L417.55 257.37L416.65 254.84L415.85 252.27L415.15 249.65L414.55 247L414.05 244.3L413.66 241.58L413.38 238.81L413.21 236.02L413.16 233.2L413.21 230.38L413.38 227.58L413.66 224.82L414.05 222.09L414.55 219.4L415.15 216.75L415.85 214.13L416.65 211.56L417.55 209.03L418.54 206.55L419.63 204.11L420.81 201.73L422.07 199.4L423.42 197.13L424.86 194.91L426.38 192.76L427.98 190.66L429.65 188.63L431.4 186.67L433.23 184.77L435.12 182.95L437.09 181.2L439.12 179.52L441.21 177.92L443.37 176.4L445.58 174.97L447.86 173.62L450.19 172.35L452.57 171.17L455 170.09L457.49 169.09L460.01 168.19L462.59 167.39L465.2 166.69L467.86 166.09L470.55 165.6L473.28 165.21L476.04 164.93L478.83 164.76L481.66 164.7L484.48 164.76L487.27 164.93ZM453.47 211.84L452.16 211.98L450.87 212.17L449.6 212.41L448.34 212.7L447.11 213.03L445.89 213.42L444.7 213.85L443.53 214.33L442.38 214.85L441.26 215.42L440.16 216.03L439.1 216.68L438.06 217.37L437.05 218.1L436.07 218.87L435.12 219.67L434.2 220.51L433.32 221.39L432.48 222.3L431.67 223.24L430.9 224.21L430.16 225.22L429.47 226.25L428.81 227.31L428.2 228.4L427.63 229.51L427.1 230.65L426.62 231.82L426.18 233L425.8 234.21L425.46 235.44L425.16 236.69L424.92 237.95L424.74 239.23L424.6 240.53L424.52 241.85L424.49 243.18L424.52 244.5L424.6 245.82L424.74 247.12L424.92 248.4L425.16 249.67L425.46 250.91L425.8 252.14L426.18 253.35L426.62 254.54L427.1 255.7L427.63 256.84L428.2 257.95L428.81 259.04L429.47 260.1L430.16 261.13L430.9 262.14L431.67 263.11L432.48 264.05L433.32 264.96L434.2 265.84L435.12 266.68L436.07 267.48L437.05 268.25L438.06 268.98L439.1 269.67L440.16 270.32L441.26 270.93L442.38 271.5L443.53 272.02L444.7 272.5L445.89 272.93L447.11 273.32L448.34 273.66L449.6 273.95L450.87 274.18L452.16 274.37L453.47 274.51L454.79 274.59L456.13 274.62L457.46 274.59L458.79 274.51L460.09 274.37L461.39 274.18L462.66 273.95L463.91 273.66L465.15 273.32L466.36 272.93L467.56 272.5L468.73 272.02L469.87 271.5L471 270.93L472.09 270.32L473.16 269.67L474.2 268.98L475.21 268.25L476.19 267.48L477.14 266.68L478.05 265.84L478.93 264.96L479.78 264.05L480.59 263.11L481.36 262.14L482.09 261.13L482.79 260.1L483.44 259.04L484.06 257.95L484.63 256.84L485.15 255.7L485.64 254.54L486.07 253.35L486.46 252.14L486.8 250.91L487.09 249.67L487.33 248.4L487.52 247.12L487.66 245.82L487.74 244.5L487.77 243.18L487.74 241.85L487.66 240.53L487.52 239.23L487.33 237.95L487.09 236.69L486.8 235.44L486.46 234.21L486.07 233L485.64 231.82L485.15 230.65L484.63 229.51L484.06 228.4L483.44 227.31L482.79 226.25L482.09 225.22L481.36 224.21L480.59 223.24L479.78 222.3L478.93 221.39L478.05 220.51L477.14 219.67L476.19 218.87L475.21 218.1L474.2 217.37L473.16 216.68L472.09 216.03L471 215.42L469.87 214.85L468.73 214.33L467.56 213.85L466.36 213.42L465.15 213.03L463.91 212.7L462.66 212.41L461.39 212.17L460.09 211.98L458.79 211.84L457.46 211.76L456.13 211.73L454.79 211.76L453.47 211.84Z" id="aUEhSKRa2"></path><path d="M492.7 117.37L497.21 117.83L501.67 118.47L506.08 119.28L510.42 120.26L514.69 121.41L518.9 122.71L523.03 124.18L527.09 125.81L531.07 127.59L534.97 129.51L538.78 131.58L542.49 133.79L546.12 136.14L549.64 138.62L553.07 141.24L556.39 143.98L559.6 146.84L562.7 149.82L565.68 152.92L568.54 156.13L571.28 159.45L573.89 162.87L576.38 166.4L578.73 170.02L580.94 173.74L583.01 177.55L584.93 181.44L586.71 185.42L588.33 189.48L589.8 193.62L591.11 197.82L592.26 202.1L593.24 206.44L594.05 210.84L594.68 215.31L595.14 219.82L595.42 224.39L595.52 229L595.42 233.61L595.14 238.18L594.68 242.7L594.05 247.16L593.24 251.56L592.26 255.9L591.11 260.18L589.8 264.39L588.33 268.52L586.71 272.58L584.93 276.56L583.01 280.45L580.94 284.26L578.73 287.98L576.38 291.6L573.89 295.13L571.28 298.55L568.54 301.87L565.68 305.08L562.7 308.18L559.6 311.16L556.39 314.03L553.07 316.77L549.64 319.38L546.12 321.86L542.49 324.21L538.78 326.42L534.97 328.49L531.07 330.42L527.09 332.19L523.03 333.82L518.9 335.29L514.69 336.6L510.42 337.74L506.08 338.72L501.67 339.53L497.21 340.17L492.7 340.63L488.13 340.91L483.52 341L478.9 340.91L474.34 340.63L469.82 340.17L465.36 339.53L460.96 338.72L456.61 337.74L452.34 336.6L448.13 335.29L444 333.82L439.94 332.19L435.96 330.42L432.06 328.49L428.25 326.42L424.54 324.21L420.91 321.86L417.39 319.38L413.96 316.77L410.64 314.03L407.43 311.16L404.33 308.18L401.35 305.08L398.49 301.87L395.75 298.55L393.14 295.13L390.65 291.6L388.31 287.98L386.09 284.26L384.02 280.45L382.1 276.56L380.32 272.58L379.76 271.16L379.19 272.58L377.41 276.56L375.49 280.45L373.42 284.26L371.21 287.98L368.86 291.6L366.37 295.13L363.76 298.55L361.02 301.87L358.16 305.08L355.18 308.18L352.08 311.16L348.87 314.03L345.55 316.77L342.12 319.38L338.6 321.86L334.97 324.21L331.26 326.42L327.45 328.49L323.55 330.42L319.57 332.19L315.52 333.82L311.38 335.29L307.17 336.6L302.9 337.74L298.56 338.72L294.15 339.53L289.69 340.17L285.18 340.63L280.61 340.91L276 341L271.38 340.91L266.82 340.63L262.3 340.17L257.84 339.53L253.44 338.72L249.09 337.74L244.82 336.6L240.61 335.29L236.48 333.82L232.42 332.19L228.44 330.42L224.54 328.49L220.74 326.42L217.02 324.21L213.39 321.86L209.87 319.38L206.44 316.77L203.12 314.03L199.91 311.16L196.82 308.18L193.83 305.08L190.97 301.87L188.23 298.55L185.62 295.13L183.13 291.6L180.79 287.98L178.57 284.26L176.5 280.45L174.58 276.56L172.8 272.58L171.18 268.52L169.71 264.39L168.4 260.18L167.25 255.9L166.27 251.56L165.46 247.16L164.83 242.7L164.37 238.18L164.09 233.61L164 229L164.09 224.39L164.37 219.82L164.83 215.31L165.46 210.84L166.27 206.44L167.25 202.1L168.4 197.82L169.71 193.62L171.18 189.48L172.8 185.42L174.58 181.44L176.5 177.55L178.57 173.74L180.79 170.02L183.13 166.4L185.62 162.87L188.23 159.45L190.97 156.13L193.83 152.92L196.82 149.82L199.91 146.84L203.12 143.98L206.44 141.24L209.87 138.62L213.39 136.14L217.02 133.79L220.74 131.58L224.54 129.51L228.44 127.59L232.42 125.81L236.48 124.18L240.61 122.71L244.82 121.41L249.09 120.26L253.44 119.28L257.84 118.47L262.3 117.83L266.82 117.37L271.38 117.09L276 117L280.61 117.09L285.18 117.37L289.69 117.83L294.15 118.47L298.56 119.28L302.9 120.26L307.17 121.41L311.38 122.71L315.52 124.18L319.57 125.81L323.55 127.59L327.45 129.51L331.26 131.58L334.97 133.79L338.6 136.14L342.12 138.62L345.55 141.24L348.87 143.98L352.08 146.84L355.18 149.82L358.16 152.92L361.02 156.13L363.76 159.45L366.37 162.87L368.86 166.4L371.21 170.02L373.42 173.74L375.49 177.55L377.41 181.44L379.19 185.42L379.76 186.84L380.32 185.42L382.1 181.44L384.02 177.55L386.09 173.74L388.31 170.02L390.65 166.4L393.14 162.87L395.75 159.45L398.49 156.13L401.35 152.92L404.33 149.82L407.43 146.84L410.64 143.98L413.96 141.24L417.39 138.62L420.91 136.14L424.54 133.79L428.25 131.58L432.06 129.51L435.96 127.59L439.94 125.81L444 124.18L448.13 122.71L452.34 121.41L456.61 120.26L460.96 119.28L465.36 118.47L469.82 117.83L474.34 117.37L478.9 117.09L483.52 117L488.13 117.09L492.7 117.37ZM474.83 139.64L471.35 140.07L467.92 140.65L464.53 141.36L461.18 142.2L457.89 143.18L454.65 144.29L451.47 145.52L448.35 146.87L445.29 148.35L442.29 149.95L439.36 151.65L436.51 153.47L433.72 155.4L431.01 157.44L428.39 159.58L425.84 161.82L423.38 164.16L421.01 166.59L418.73 169.12L416.54 171.73L414.45 174.43L412.46 177.21L410.57 180.08L408.78 183.02L407.11 186.04L405.54 189.13L404.09 192.29L402.76 195.51L401.54 198.8L400.45 202.15L399.48 205.56L398.65 209.03L397.94 212.54L397.36 216.11L397.27 216.87L360.65 216.87L360.35 214.7L359.73 211.23L358.98 207.81L358.11 204.44L357.11 201.13L355.99 197.87L354.75 194.68L353.39 191.54L351.92 188.47L350.34 185.48L348.66 182.55L346.86 179.69L344.97 176.92L342.97 174.22L340.88 171.6L338.7 169.08L336.42 166.63L334.06 164.29L331.61 162.03L329.08 159.87L326.46 157.81L323.77 155.86L321.01 154.01L318.17 152.27L315.26 150.64L312.29 149.12L309.25 147.72L306.16 146.44L303 145.29L299.79 144.25L296.53 143.35L293.21 142.58L289.85 141.94L286.45 141.44L283 141.08L279.52 140.86L276 140.78L272.47 140.86L268.99 141.08L265.54 141.44L262.14 141.94L258.78 142.58L255.47 143.35L252.2 144.25L248.99 145.29L245.84 146.44L242.74 147.72L239.7 149.12L236.73 150.64L233.82 152.27L230.99 154.01L228.22 155.86L225.53 157.81L222.92 159.87L220.38 162.03L217.93 164.29L215.57 166.63L213.29 169.08L211.11 171.6L209.02 174.22L207.02 176.92L205.13 179.69L203.34 182.55L201.65 185.48L200.07 188.47L198.6 191.54L197.24 194.68L196 197.87L194.88 201.13L193.88 204.44L193.01 207.81L192.26 211.23L191.64 214.7L191.16 218.21L190.81 221.77L190.59 225.37L190.52 229L190.59 232.63L190.81 236.23L191.16 239.79L191.64 243.3L192.26 246.77L193.01 250.19L193.88 253.56L194.88 256.87L196 260.13L197.24 263.33L198.6 266.46L200.07 269.53L201.65 272.53L203.34 275.46L205.13 278.31L207.02 281.09L209.02 283.78L211.11 286.4L213.29 288.93L215.57 291.37L217.93 293.72L220.38 295.97L222.92 298.13L225.53 300.19L228.22 302.14L230.99 303.99L233.82 305.73L236.73 307.36L239.7 308.88L242.74 310.28L245.84 311.56L248.99 312.72L252.2 313.75L255.47 314.65L258.78 315.42L262.14 316.06L265.54 316.56L268.99 316.92L272.47 317.14L276 317.22L279.52 317.14L283 316.92L286.45 316.56L289.85 316.06L293.21 315.42L296.53 314.65L299.79 313.75L303 312.72L306.16 311.56L309.25 310.28L312.29 308.88L315.26 307.36L318.17 305.73L321.01 303.99L323.77 302.14L326.46 300.19L329.08 298.13L331.61 295.97L334.06 293.72L336.42 291.37L338.7 288.93L340.88 286.4L342.97 283.78L344.97 281.09L346.86 278.31L348.66 275.46L350.34 272.53L351.92 269.53L353.39 266.46L354.75 263.33L355.99 260.13L357.11 256.87L358.11 253.56L358.98 250.19L359.02 250.03L398.84 250.03L399.34 252.15L400.29 255.54L401.36 258.88L402.55 262.16L403.86 265.38L405.28 268.54L406.82 271.63L408.47 274.65L410.23 277.59L412.1 280.46L414.07 283.25L416.14 285.96L418.31 288.58L420.57 291.12L422.92 293.56L425.37 295.92L427.9 298.17L430.51 300.32L433.21 302.37L435.98 304.32L438.83 306.16L441.75 307.88L444.75 309.49L447.81 310.98L450.93 312.36L454.12 313.6L457.36 314.73L460.67 315.72L464.02 316.58L467.43 317.31L470.88 317.89L474.38 318.34L477.93 318.64L481.51 318.79L485.1 318.8L488.65 318.65L492.17 318.36L495.64 317.93L499.08 317.36L502.47 316.65L505.81 315.8L509.1 314.82L512.34 313.72L515.53 312.48L518.65 311.13L521.71 309.65L524.71 308.06L527.63 306.35L530.49 304.53L533.27 302.6L535.98 300.56L538.61 298.42L541.15 296.18L543.61 293.84L545.99 291.41L548.27 288.89L550.46 286.27L552.55 283.57L554.54 280.79L556.43 277.92L558.21 274.98L559.89 271.96L561.45 268.87L562.9 265.71L564.24 262.49L565.45 259.2L566.54 255.85L567.51 252.44L568.35 248.98L569.06 245.46L569.63 241.89L570.07 238.28L570.37 234.63L570.52 230.93L570.53 227.23L570.39 223.56L570.12 219.93L569.7 216.35L569.15 212.8L568.47 209.3L567.65 205.86L566.71 202.46L565.64 199.12L564.45 195.84L563.14 192.62L561.71 189.46L560.17 186.37L558.52 183.35L556.76 180.41L554.89 177.54L552.93 174.75L550.86 172.04L548.69 169.42L546.43 166.88L544.07 164.44L541.63 162.09L539.1 159.83L536.48 157.68L533.79 155.63L531.01 153.68L528.16 151.85L525.24 150.12L522.25 148.51L519.19 147.02L516.06 145.65L512.88 144.4L509.63 143.27L506.33 142.28L502.97 141.42L499.57 140.7L496.11 140.11L492.61 139.66L489.07 139.36L485.49 139.21L481.9 139.2L478.35 139.35L474.83 139.64Z" id="a2NKijvCca"></path><path d="M324.86 234.76C324.86 240.83 319.93 245.76 313.86 245.76C307.79 245.76 302.86 240.83 302.86 234.76C302.86 228.69 307.79 223.76 313.86 223.76C319.93 223.76 324.86 228.69 324.86 234.76Z" id="cCILrcclB"></path><path d="M493.25 117.37L497.77 117.83L502.23 118.46L506.63 119.27L510.97 120.26L515.25 121.4L519.46 122.71L523.59 124.18L527.65 125.8L531.63 127.58L535.52 129.51L539.33 131.58L543.05 133.79L546.67 136.14L550.2 138.62L553.62 141.23L556.94 143.97L560.15 146.83L563.25 149.82L566.24 152.92L569.1 156.13L571.84 159.45L574.45 162.87L576.93 166.4L579.28 170.02L581.49 173.74L583.56 177.55L585.49 181.44L587.26 185.42L588.89 189.48L590.36 193.61L591.67 197.82L592.81 202.1L593.8 206.44L594.61 210.84L595.24 215.3L595.7 219.82L595.98 224.38L596.07 229L595.98 233.61L595.7 238.18L595.24 242.69L594.61 247.15L593.8 251.56L592.81 255.9L591.67 260.18L590.36 264.38L588.89 268.52L587.26 272.58L585.49 276.55L583.56 280.45L581.49 284.26L579.28 287.98L576.93 291.6L574.45 295.13L571.84 298.55L569.1 301.87L566.24 305.08L563.25 308.18L560.15 311.16L556.94 314.02L553.62 316.76L550.2 319.38L546.67 321.86L543.05 324.21L539.33 326.42L535.52 328.49L531.63 330.41L527.65 332.19L523.59 333.81L519.46 335.28L515.25 336.59L510.97 337.74L506.63 338.72L502.23 339.53L497.77 340.17L493.25 340.63L488.69 340.9L484.07 341L479.46 340.9L474.89 340.63L470.38 340.17L465.92 339.53L461.51 338.72L457.17 337.74L452.89 336.59L448.69 335.28L444.55 333.81L440.49 332.19L436.52 330.41L432.62 328.49L428.81 326.42L425.09 324.21L421.47 321.86L417.94 319.38L414.52 316.76L411.2 314.02L407.99 311.16L404.89 308.18L401.91 305.08L399.05 301.87L396.31 298.55L393.69 295.13L391.21 291.6L388.86 287.98L386.65 284.26L384.58 280.45L382.66 276.55L381 272.84L381 250.08L398.84 250.08L398.93 250.52L399.82 253.95L400.83 257.31L401.96 260.62L403.22 263.87L404.59 267.05L406.08 270.17L407.67 273.22L409.38 276.19L411.19 279.09L413.11 281.91L415.13 284.65L417.24 287.31L419.46 289.88L421.76 292.36L424.15 294.74L426.63 297.04L429.19 299.23L431.84 301.32L434.56 303.31L437.36 305.18L440.23 306.95L443.17 308.61L446.18 310.15L449.25 311.57L452.38 312.87L455.57 314.05L458.82 315.1L462.12 316.01L465.48 316.8L468.88 317.45L472.32 317.96L475.81 318.32L479.33 318.55L482.9 318.62L486.46 318.55L489.98 318.32L493.47 317.96L496.91 317.45L500.31 316.8L503.67 316.01L506.97 315.1L510.22 314.05L513.41 312.87L516.54 311.57L519.62 310.15L522.62 308.61L525.56 306.95L528.43 305.18L531.23 303.31L533.95 301.32L536.6 299.23L539.16 297.04L541.64 294.74L544.03 292.36L546.34 289.88L548.55 287.31L550.66 284.65L552.68 281.91L554.6 279.09L556.41 276.19L558.12 273.22L559.71 270.17L561.2 267.05L562.57 263.87L563.83 260.62L564.96 257.31L565.97 253.95L566.86 250.52L567.62 247.05L568.24 243.53L568.73 239.96L569.09 236.34L569.3 232.69L569.37 229L569.3 225.31L569.09 221.65L568.73 218.04L568.24 214.47L567.62 210.95L566.86 207.47L565.97 204.05L564.96 200.68L563.83 197.37L562.57 194.13L561.2 190.94L559.71 187.83L558.12 184.78L556.41 181.8L554.6 178.9L552.68 176.08L550.66 173.34L548.55 170.69L546.34 168.12L544.03 165.64L541.64 163.25L539.16 160.96L536.6 158.77L533.95 156.68L531.23 154.69L528.43 152.81L525.56 151.04L522.62 149.38L519.62 147.84L516.54 146.42L513.41 145.12L510.22 143.95L506.97 142.9L503.67 141.98L500.31 141.2L496.91 140.55L493.47 140.04L489.98 139.67L486.46 139.45L482.9 139.37L479.33 139.45L475.81 139.67L472.32 140.04L468.88 140.55L465.48 141.2L462.12 141.98L458.82 142.9L455.57 143.95L452.38 145.12L449.25 146.42L446.18 147.84L443.17 149.38L440.23 151.04L437.36 152.81L434.56 154.69L431.84 156.68L429.19 158.77L426.63 160.96L424.15 163.25L421.76 165.64L419.46 168.12L417.24 170.69L415.13 173.34L413.11 176.08L411.19 178.9L409.38 181.8L407.67 184.78L406.08 187.83L404.59 190.94L403.22 194.13L401.96 197.37L400.83 200.68L399.82 204.05L398.93 207.47L398.18 210.95L397.55 214.47L397.23 216.79L381 216.79L381 185.16L382.66 181.44L384.58 177.55L386.65 173.74L388.86 170.02L391.21 166.4L393.69 162.87L396.31 159.45L399.05 156.13L401.91 152.92L404.89 149.82L407.99 146.83L411.2 143.97L414.52 141.23L417.94 138.62L421.47 136.14L425.09 133.79L428.81 131.58L432.62 129.51L436.52 127.58L440.49 125.8L444.55 124.18L448.69 122.71L452.89 121.4L457.17 120.26L461.51 119.27L465.92 118.46L470.38 117.83L474.89 117.37L479.46 117.09L484.07 117L488.69 117.09L493.25 117.37Z" id="a80c1hvq2"></path><path d="M456.74 234.76C456.74 240.83 451.81 245.76 445.74 245.76C439.67 245.76 434.74 240.83 434.74 234.76C434.74 228.69 439.67 223.76 445.74 223.76C451.81 223.76 456.74 228.69 456.74 234.76Z" id="b3vaE8Xagg"></path><path d="M379.26 690.25L379.26 751.18" id="b1e5RX27lf"></path></defs><g><g><g><use xlink:href="#a1d5z5WkLi" opacity="1" fill="#1a4375" fill-opacity="1"></use></g><g><use xlink:href="#bNfBH2Gor" opacity="1" fill="#ceeaf2" fill-opacity="1"></use></g><g><use xlink:href="#eb84j4hkL" opacity="1" fill="#addbdc" fill-opacity="1"></use></g><g><use xlink:href="#b1vLbWpnGS" opacity="1" fill="#1b4576" fill-opacity="1"></use></g><g><use xlink:href="#d15c7PV0s" opacity="1" fill="#b2c7cf" fill-opacity="1"></use></g><g><use xlink:href="#a1bf1ppgIJ" opacity="1" fill="#90b8ba" fill-opacity="1"></use></g><g><use xlink:href="#a2pewLfjur" opacity="1" fill="#203b61" fill-opacity="1"></use></g><g><use xlink:href="#d1a68PH03X" opacity="1" fill="#ceeaf2" fill-opacity="1"></use></g><g><use xlink:href="#i16W0HdE9q" opacity="1" fill="#b2c7cf" fill-opacity="1"></use></g><g><use xlink:href="#c51OAaXEQ" opacity="1" fill="#ffffff" fill-opacity="1"></use></g><g><use xlink:href="#aUEhSKRa2" opacity="1" fill="#d3d5d3" fill-opacity="1"></use></g><g><use xlink:href="#a2NKijvCca" opacity="1" fill="#addbdc" fill-opacity="1"></use></g><g><use xlink:href="#cCILrcclB" opacity="1" fill="#fffffd" fill-opacity="1"></use></g><g><use xlink:href="#a80c1hvq2" opacity="1" fill="#90b8ba" fill-opacity="1"></use></g><g><use xlink:href="#b3vaE8Xagg" opacity="1" fill="#d3d5d3" fill-opacity="1"></use></g><g><g><use xlink:href="#b1e5RX27lf" opacity="1" fill-opacity="0" stroke="#ceeaf2" stroke-width="2" stroke-opacity="1"></use></g></g></g></g></svg>